<?xml version="1.0" standalone="no"?>
<!DOCTYPE svg PUBLIC "-//W3C//DTD SVG 20010904//EN"
 "http://www.w3.org/TR/2001/REC-SVG-20010904/DTD/svg10.dtd">
<svg version="1.0" xmlns="http://www.w3.org/2000/svg"
 width="83.000000pt" height="76.000000pt" viewBox="0 0 83.000000 76.000000"
 preserveAspectRatio="xMidYMid meet">

<g transform="translate(0.000000,76.000000) scale(0.100000,-0.100000)"
fill="#000000" stroke="none">
<path d="M94 646 c-3 -8 -4 -23 -2 -33 3 -17 21 -18 253 -21 l249 -2 -259
-260 -260 -260 50 0 50 0 230 230 c126 127 233 230 237 230 5 0 8 -103 8 -230
l0 -230 30 0 30 0 0 295 0 295 -305 0 c-257 0 -307 -2 -311 -14z"/>
</g>
</svg>
